<?xml version="1.0" encoding="UTF-8"?>
<!-- Created with Inkscape (http://www.inkscape.org/) -->
<svg width="9756" height="1302" version="1.1" viewBox="0 0 2581.3 344.49" xml:space="preserve" xmlns="http://www.w3.org/2000/svg"><path d="m43.324 344.2c-2.8204-0.66634-5.5558-2.9104-6.9276-5.6831-1.0541-2.1307-1.2641-5.5926-0.47242-7.7885 0.28855-0.80036 6.4782-11.754 13.755-24.342l13.23-22.886-27.287-0.13636c-19.675-0.09833-27.525-0.22173-28.14-0.44238-5.7708-2.0719-8.7832-8.0139-6.8461-13.504 0.20688-0.58636 34.63-60.404 76.495-132.93 58.243-100.89 76.407-132.16 77.348-133.13 0.67594-0.69879 2.0004-1.6513 2.9432-2.1167 1.6003-0.78989 1.8997-0.84615 4.5035-0.84615 2.6164 0 2.8983 0.053691 4.5489 0.86628 1.1624 0.57227 2.1932 1.3491 3.0372 2.2888 0.86999 0.96875 5.4904 8.7356 14.485 24.349l13.207 22.926 0.45612-0.74095c0.25087-0.40752 6.2564-10.802 13.346-23.098 9.4479-16.388 13.217-22.697 14.118-23.628 0.67569-0.69879 1.9999-1.6513 2.9428-2.1167 1.6003-0.78989 1.8997-0.84615 4.5035-0.84615 2.6175 0 2.8978 0.05345 4.5524 0.86798 1.1526 0.56741 2.1911 1.3462 2.999 2.249 0.85409 0.95434 24.571 41.802 76.769 132.22 41.543 71.96 75.876 131.51 76.295 132.33 2.9642 5.8161 0.1431 12.559-6.2233 14.874-0.55441 0.20161-9.214 0.33339-28.108 0.42775l-27.306 0.13636 13.361 23.151c8.2852 14.356 13.519 23.695 13.778 24.584 1.3811 4.7447-1.1225 10.12-5.7306 12.304l-1.7206 0.8154-153.46 0.0401c-88.5 0.0232-153.88-0.0592-154.45-0.19453zm69.015-23.966c3.9161-6.7905 7.1202-12.488 7.1202-12.661 0-0.17301-3.0956-5.6879-6.8792-12.255l-6.8792-11.941-28.848-8e-3 -13.936 24.143c-7.6649 13.279-14.016 24.352-14.113 24.606-0.16798 0.43919 1.2793 0.46302 28.119 0.46302h28.296zm21.447 11.957c-0.12916-0.33659-7-12.335-7.1611-12.505-0.0762-0.0805-6.9463 11.816-7.1795 12.432-0.16423 0.43405 0.28363 0.46302 7.1575 0.46302 6.3492 0 7.3126-0.0523 7.1831-0.38971zm49.192-11.959c3.9186-6.7916 7.1248-12.488 7.1248-12.659 0-0.17072-3.0956-5.6845-6.8792-12.253l-6.8792-11.943-28.852-0.01-6.7404 11.668c-3.7072 6.4173-6.8412 11.879-6.9644 12.137-0.17118 0.35896 1.4718 3.4083 6.9712 12.938l7.1952 12.469h27.9zm21.443 11.935c-0.13051-0.34011-6.9712-12.263-7.1652-12.489-0.074-0.0861-6.9182 11.798-7.164 12.439-0.16637 0.4341 0.28051 0.46302 7.1552 0.46302 6.5397 0 7.3155-0.0447 7.174-0.41343zm49.198-11.934c3.9204-6.7913 7.1279-12.485 7.1279-12.652 0-0.16733-3.0956-5.6816-6.8792-12.254l-6.8792-11.95-28.852-0.01-6.9392 12.02c-3.8166 6.6109-6.9392 12.095-6.9392 12.188 0 0.0923 3.2266 5.7562 7.1703 12.586l7.1703 12.419h27.892zm21.456 11.961c-0.12342-0.32164-6.9906-12.299-7.1757-12.515-0.0808-0.0945-7.1299 12.145-7.2378 12.567-0.0675 0.26411 1.4621 0.33488 7.2382 0.33488 6.3181 0 7.3034-0.0531 7.1752-0.38698zm70.736 0.21846c0-0.0927-6.3401-11.163-14.089-24.6l-14.089-24.431-28.856-0.014-6.9373 12.013c-3.8155 6.6072-6.9373 12.092-6.9373 12.189 0 0.12825 8.7757 15.458 14.204 24.812 0.13924 0.23996 56.705 0.2698 56.705 0.0299zm-215.55-43.223 3.2894-5.6885-3.3917-0.0737c-1.8654-0.0405-4.9997-0.0405-6.9649 0l-3.5732 0.0737 3.4786 6.0232c2.1935 3.798 3.5513 5.8995 3.6755 5.6885 0.10833-0.18403 1.6772-2.8944 3.4864-6.0232zm70.638 0 3.296-5.6885-3.392-0.0737c-1.8656-0.0405-5.0021-0.0405-6.97 0l-3.5779 0.0737 3.4827 6.0241c2.1652 3.7451 3.5551 5.8972 3.674 5.6886 0.10517-0.18456 1.6744-2.8954 3.4872-6.0241zm70.644 0 3.296-5.6885-3.556-0.0737c-1.9558-0.0405-5.0899-0.0405-6.9648 0l-3.4088 0.0737 3.4722 6.0338c2.2267 3.8695 3.5427 5.9099 3.6688 5.6886 0.10815-0.18988 1.6798-2.9051 3.4926-6.0338zm-194.51-30.159c3.9069-6.7646 7.1034-12.447 7.1034-12.627 0-0.31951-12.539-22.241-13.551-23.691l-0.50791-0.7276h-14.096c-13.097 0-14.124 0.0328-14.494 0.46302-0.40265 0.46864-28.259 48.665-28.259 48.893 0 0.0679 12.758 0.0932 28.351 0.0561l28.351-0.0673zm21.449 12.285c0.11672-0.11672-5.2049-9.6225-6.8558-12.246-0.37738-0.59975-0.50281-0.42236-4.072 5.7591-2.0255 3.5078-3.6827 6.4354-3.6827 6.5058 0 0.1793 14.431 0.16081 14.61-0.0187zm49.195-12.289c3.9054-6.7667 7.1012-12.451 7.1018-12.632 8.7e-4 -0.30276-11.917-21.15-13.386-23.417l-0.64332-0.99219h-28.451l-6.9814 12.084c-3.8398 6.6465-6.9771 12.213-6.9719 12.369 0.0078 0.23411 12.742 22.454 14.001 24.43l0.38072 0.59765 27.85-0.137zm21.449 12.289c0.11672-0.11672-5.2049-9.6225-6.8558-12.246-0.37737-0.59975-0.5028-0.42236-4.072 5.7591-2.0255 3.5078-3.6827 6.4354-3.6827 6.5058 0 0.1793 14.431 0.16081 14.61-0.0187zm49.189-12.289c3.9098-6.7667 7.1089-12.449 7.109-12.627 2.3e-4 -0.29765-11.922-21.155-13.388-23.423l-0.64167-0.99219h-28.456l-6.9789 12.084c-3.8384 6.6461-6.9741 12.212-6.9683 12.369 9e-3 0.23838 12.81 22.582 13.997 24.431l0.38367 0.59765 27.835-0.137zm21.455 12.289c0.11543-0.11542-5.123-9.4705-6.8568-12.245-0.37317-0.59721-0.50207-0.4166-3.9654 5.5562-1.9688 3.3954-3.6392 6.3224-3.712 6.5043-0.10392 0.25976 1.4256 0.33073 7.1279 0.33073 3.9931 0 7.326-0.0657 7.4062-0.146zm49.188-12.289c3.9092-6.7667 7.1084-12.444 7.1091-12.617 1e-3 -0.29227-11.969-21.247-13.386-23.433l-0.64316-0.99219h-28.463l-6.9757 12.079c-3.8366 6.6436-6.9721 12.21-6.9678 12.369 7e-3 0.24032 12.776 22.528 14 24.436l0.38349 0.59765 27.835-0.137zm21.398 12.129c0-0.33008-6.5055-11.79-6.9866-12.308-0.2147-0.23092-1.2122 1.2934-3.8614 5.9008-1.9645 3.4167-3.6116 6.325-3.6601 6.4629-0.0542 0.15403 2.7271 0.25076 7.2099 0.25076 5.3575 0 7.2981-0.0816 7.2981-0.30672zm70.582-0.16732c-0.11941-0.45663-26.308-45.988-27.615-48.011l-0.64095-0.99219h-28.464l-6.975 12.075c-3.8362 6.6415-6.9714 12.208-6.9671 12.369 7e-3 0.24271 12.762 22.511 13.998 24.437l0.38196 0.59531h28.203c26.979 0 28.198-0.0206 28.079-0.47404zm-286.22-42.567c1.819-3.1499 3.3458-5.8866 3.3928-6.0816 0.06983-0.28931-1.1819-0.35443-6.813-0.35443-4.3853 0-6.8986 0.0956-6.8986 0.26245 0 0.33247 6.6825 11.91 6.8714 11.905 0.07701-2e-3 1.6283-2.581 3.4473-5.731zm70.644-0.0132c1.819-3.1585 3.3458-5.8957 3.3928-6.0827 0.0681-0.27052-1.3252-0.34006-6.813-0.34006-4.3853 0-6.8986 0.0956-6.8986 0.26245 0 0.33174 6.6821 11.909 6.8714 11.906 0.077-1e-3 1.6283-2.5869 3.4473-5.7454zm70.644 0c1.819-3.1585 3.3458-5.8957 3.3928-6.0827 0.068-0.27052-1.3252-0.34006-6.813-0.34006-4.5465 0-6.8986 0.0927-6.8986 0.2719 0 0.34525 6.6678 11.9 6.865 11.896 0.0806-1e-3 1.6348-2.5869 3.4538-5.7454zm70.644-4e-3c1.819-3.1586 3.3458-5.8951 3.3928-6.0811 0.0678-0.26796-1.3457-0.3381-6.813-0.3381-4.5465 0-6.8986 0.0927-6.8986 0.2719 0 0.34632 6.6684 11.9 6.865 11.895 0.0806-2e-3 1.6348-2.5887 3.4538-5.7473zm-243.42-18.431c0-0.42955-7.2596-12.581-7.4158-12.413-0.27301 0.294-7.1363 12.196-7.1363 12.375 0 0.0788 3.2742 0.1433 7.276 0.1433s7.276-0.0475 7.276-0.1056zm49.271-12.388 7.1362-12.361-13.977-24.225h-28.795l-6.8123 11.774c-3.7468 6.4757-6.8755 11.96-6.9528 12.188-0.10687 0.31526 11.139 20.315 13.791 24.525l0.37639 0.59763 28.097-0.137zm21.373 12.382c0-0.42298-7.2675-12.568-7.4213-12.402-0.26973 0.29107-7.1307 12.193-7.1307 12.37 0 0.0788 3.2742 0.1433 7.276 0.1433s7.276-0.05 7.276-0.1111zm49.273-12.385 7.1377-12.364-13.997-24.22h-28.785l-6.8092 11.774c-3.745 6.4757-6.8725 11.962-6.9499 12.192-0.0836 0.24828 2.6112 5.1893 6.6379 12.171 3.7283 6.4641 6.948 12.022 7.1549 12.35l0.37625 0.59763 28.097-0.137zm21.327 12.274c-0.47904-1.2049-7.227-12.453-7.375-12.293-0.27102 0.29222-7.1329 12.194-7.1329 12.372 0 0.0788 3.2841 0.1433 7.2981 0.1433s7.2584-0.0998 7.2099-0.22182zm49.312-12.276 7.1358-12.366-13.992-24.217h-28.784l-6.8092 11.774c-3.745 6.4757-6.8731 11.964-6.9513 12.196-0.0854 0.25384 2.5605 5.1073 6.6352 12.171 3.7275 6.4617 6.9478 12.018 7.1562 12.346l0.37891 0.59763 28.094-0.137zm21.332 12.276c-0.48691-1.2246-7.2289-12.453-7.3817-12.293-0.2687 0.28019-7.1263 12.185-7.1263 12.371 0 0.0794 3.2841 0.14428 7.2981 0.14428s7.2584-0.0998 7.2099-0.22182zm49.307-12.271 7.1374-12.361-13.984-24.226h-28.786l-6.2808 10.848c-3.4544 5.9664-6.5927 11.443-6.9739 12.171l-0.69316 1.3229 6.7991 11.774c3.7395 6.4757 6.9696 12.043 7.178 12.372l0.3789 0.59763 28.087-0.137zm21.337 12.282c-0.5522-1.3244-7.2344-12.457-7.3837-12.302-0.26744 0.27898-7.1243 12.183-7.1243 12.369 0 0.0794 3.2841 0.14428 7.2981 0.14428s7.2584-0.0952 7.2099-0.21153zm-215.75-42.609c1.8324-3.1783 3.3316-5.9167 3.3316-6.0854 0-0.22472-1.8393-0.30673-6.8792-0.30673-3.7835 0-6.8792 0.0523-6.8792 0.1161 0 0.1011 2.5221 4.5172 5.8646 10.269 0.57085 0.98226 1.0812 1.7859 1.1342 1.7859 0.053 0 1.5955-2.6004 3.4279-5.7787zm70.644 0c1.8324-3.1783 3.3316-5.9167 3.3316-6.0854 0-0.22472-1.8393-0.30673-6.8792-0.30673-3.7836 0-6.8792 0.0633-6.8792 0.14074 0 0.0774 1.0874 2.0122 2.4165 4.2995s2.8821 4.9624 3.4512 5.9447c0.56913 0.98226 1.0781 1.7859 1.1311 1.7859 0.053 0 1.5955-2.6004 3.4279-5.7787zm70.642-8e-3c1.8332-3.1824 3.3332-5.9209 3.3332-6.0854 0-0.21483-1.9392-0.29917-6.8792-0.29917-3.7835 0-6.8792 0.0633-6.8792 0.14074 0 0.0774 1.0874 2.0122 2.4165 4.2995 1.3291 2.2873 2.8821 4.9624 3.4512 5.9447 0.56913 0.98226 1.0774 1.7859 1.1295 1.7859s1.5947-2.6038 3.4279-5.7862zm-173.34-19.566c-0.40312-0.70181-2.0426-3.5577-3.6434-6.3464-1.6007-2.7887-2.972-5.072-3.0472-5.074-0.07525-2e-3 -1.5576 2.4669-3.2942 5.4865-1.7365 3.0196-3.3834 5.877-3.6596 6.35l-0.50228 0.85989h14.88zm49.829-11.187 7.17-12.45-14.025-24.3h-28.711l-6.9691 12.085c-3.833 6.6466-6.9302 12.213-6.8828 12.369 0.04748 0.15646 3.2613 5.7911 7.1418 12.521l7.0555 12.237 28.05-0.014zm20.815 11.192c-0.40312-0.69871-2.0426-3.5545-3.6434-6.3462s-2.973-5.0775-3.0496-5.0796c-0.0765-2e-3 -1.5598 2.4667-3.2962 5.4863-1.7364 3.0196-3.3822 5.877-3.6573 6.35l-0.50022 0.85989h14.88zm49.67-10.918c3.8563-6.6971 7.0505-12.353 7.0982-12.568 0.0477-0.21543-3.0362-5.8071-6.8532-12.426l-6.94-12.034-28.788 0.13678-6.8968 11.906c-3.7933 6.5484-6.9024 12.041-6.9092 12.205-7e-3 0.16444 3.1915 5.8497 7.1073 12.634l7.1197 12.335 28.05-0.012zm20.974 10.918c-0.40312-0.69871-2.0426-3.5545-3.6434-6.3462s-2.973-5.0775-3.0496-5.0796c-0.0765-2e-3 -1.5598 2.4667-3.2962 5.4863-1.7364 3.0196-3.3822 5.877-3.6573 6.35l-0.50022 0.85989h14.88zm49.67-10.917c3.8563-6.6936 7.0504-12.348 7.0981-12.565 0.0476-0.21691-3.0386-5.8102-6.8584-12.429l-6.945-12.035-28.782 0.13676-6.8949 11.906c-3.7922 6.5484-6.9003 12.04-6.9069 12.204-7e-3 0.16369 3.1902 5.8489 7.104 12.634l7.116 12.336 28.057-0.018zm20.974 10.914c-0.40313-0.70066-2.0426-3.5547-3.6434-6.3424-1.6007-2.7876-2.973-5.0719-3.0496-5.0761-0.12289-7e-3 -5.7233 9.5181-6.9448 11.811l-0.46935 0.88112h14.84zm-144.31-42.007c1.7674-3.0679 3.2135-5.6575 3.2135-5.7547 0-0.09721-3.0956-0.17675-6.8792-0.17675-3.7835 0-6.8792 0.08616-6.8792 0.19147 0 0.10531 1.518 2.8378 3.3734 6.0723 2.5296 4.4098 3.4466 5.8014 3.6657 5.5632 0.16074-0.17466 1.7383-2.8276 3.5057-5.8955zm70.644 0c1.7674-3.0679 3.2135-5.6575 3.2135-5.7547 0-0.09721-3.0956-0.17675-6.8792-0.17675s-6.8792 0.08616-6.8792 0.19147c0 0.10531 1.518 2.8378 3.3734 6.0723 2.5296 4.4098 3.4465 5.8014 3.6657 5.5632 0.16074-0.17466 1.7383-2.8276 3.5057-5.8955zm-102.36-18.036c-0.0162-0.42125-7.0444-12.298-7.2818-12.306-0.23906-0.0075-7.2605 11.891-7.2619 12.306-3.7e-4 0.10914 3.2736 0.19844 7.2754 0.19844s7.2726-0.0893 7.2684-0.19844zm49.198-12.266c3.9552-6.8553 7.1559-12.552 7.1127-12.659-0.31987-0.79445-28.135-48.695-28.276-48.695-0.3287 0-28.327 48.737-28.195 49.08 0.0905 0.23581 11.81 20.623 14.107 24.54 0.064 0.10914 6.4039 0.19844 14.089 0.19844h13.972zm21.446 12.266c-0.0159-0.40811-7.0919-12.369-7.3078-12.352-0.22611 0.01711-7.2341 11.981-7.2357 12.352-4.7e-4 0.10914 3.2734 0.19844 7.2752 0.19844 4.0018 0 7.2726-0.0893 7.2683-0.19844zm49.194-12.264c3.9579-6.8544 7.1606-12.549 7.117-12.656-0.33511-0.81799-28.142-48.701-28.282-48.701-0.33729 0-28.322 48.738-28.187 49.09 0.0944 0.24595 11.946 20.862 14.103 24.53 0.0641 0.10914 6.4022 0.19844 14.084 0.19844h13.968zm21.446 12.264c-0.0256-0.42427-7.0426-12.298-7.2784-12.316-0.23633-0.01817-7.259 11.894-7.2608 12.316-4.7e-4 0.10914 3.2734 0.19844 7.2752 0.19844 4.0018 0 7.2706-0.0893 7.2641-0.19844zm2124.7 209.42c0.6332-1.3461 6.9275-14.199 13.987-28.563l12.836-26.115-20.07-39.516c-11.039-21.734-20.148-39.718-20.242-39.964-0.1593-0.41513 0.4641-0.44783 8.536-0.44783h8.7079l15.588 31.508c15.153 30.627 15.598 31.487 15.941 30.758 0.1939-0.41251 6.6299-14.561 14.302-31.442l13.95-30.692 8.5493-0.0698c5.4212-0.0443 8.5166 0.0238 8.4599 0.186-0.049 0.14072-14.615 30.978-32.369 68.528l-32.279 68.273-17.048 4e-3zm-615.2-87.162c-11.807-25.585-21.546-46.729-21.642-46.986-0.166-0.44079 0.2987-0.46285 8.3613-0.39688l8.5371 0.0699 13.055 29.478c7.1803 16.213 13.097 29.52 13.148 29.571 0.051 0.0512 5.9887-13.214 13.195-29.478l13.102-29.571 8.5022-0.0698c4.6762-0.0384 8.5022 9e-4 8.5022 0.0873 0 0.15464-42.351 92.004-42.974 93.2-0.29 0.5569-2.3055-3.6899-21.786-45.905zm-1243.5 43.013c-12.309-1.1513-24.08-5.2253-34.131-11.813-14.144-9.2704-24.334-22.995-29.331-39.507-0.96293-3.1818-1.9877-8.0849-2.5948-12.414-0.53636-3.8256-0.45256-15.682 0.13931-19.711 2.0456-13.925 7.2223-26.081 15.436-36.248 2.4296-3.0073 7.9766-8.5208 10.926-10.86 5.6606-4.4897 14.053-9.1441 20.902-11.592 16.469-5.8853 36.1-5.801 52.557 0.22573 3.9247 1.4373 11.204 5.1162 14.78 7.4695 16.82 11.07 27.765 27.786 31.318 47.83 1.6283 9.1849 1.4258 20.521-0.53157 29.766-5.6979 26.912-26.001 47.944-52.88 54.778-8.1614 2.0749-18.219 2.8609-26.59 2.078zm15.44-15.195c23.088-3.3584 41.913-20.418 47.676-43.205 1.3627-5.3887 1.6999-8.3096 1.6999-14.728 0-6.4179-0.33714-9.3389-1.6999-14.728-4.5986-18.184-17.84-33.219-35.158-39.921-3.413-1.3208-8.666-2.6983-12.612-3.3073-3.5878-0.55377-11.401-0.63328-14.949-0.15213-13.014 1.7647-24.574 7.418-33.607 16.435-18.596 18.564-22.533 47.971-9.4931 70.909 7.6336 13.428 20.461 23.411 35.008 27.248 6.1393 1.6192 10.495 2.1432 16.388 1.9716 2.1619-0.063 5.198-0.29887 6.7469-0.52417zm200.59 15.197c-20.258-2.2848-35.779-15.963-39.907-35.168-1.8552-8.6318-1.3791-18.145 1.3238-26.452 3.6778-11.304 12.15-21.034 22.801-26.186 3.515-1.7004 7.4484-3.0374 11.398-3.8743 4.3675-0.92538 13.295-1.1853 17.826-0.51904 6.2514 0.91921 12.156 2.999 17.25 6.0759l2.7781 1.6781 0.0696 9.1545 0.0696 9.1545-2.5831-2.5787c-8.601-8.5864-21.695-12.27-33.176-9.3337-10.287 2.631-17.878 9.7433-21.24 19.902-1.3134 3.9677-1.8038 7.2871-1.7933 12.137 0.01 4.4595 0.41547 7.3906 1.5385 11.112 5.1063 16.923 22.819 25.539 40.474 19.686 5.4691-1.813 10.38-4.8373 14.657-9.0257 1.528-1.4964 2.8079-2.7212 2.8443-2.7218 0.0364-5.8e-4 0.0661 4.0951 0.0661 9.1016v9.1026l-2.1828 1.402c-6.1368 3.9417-12.594 6.3179-19.698 7.2493-3.2167 0.42166-9.249 0.47132-12.515 0.10301zm200.69 0.1229c-11.394-1.2244-21.744-6.3619-28.155-13.976-5.4895-6.5191-8.5872-13.765-9.9791-23.341-0.6147-4.2291-0.62039-12.835-0.0113-17.017 2.5985-17.84 12.529-30.916 27.413-36.097 5.2876-1.8405 7.2535-2.1217 14.833-2.1217 5.9823 0 7.0498 0.0664 9.4202 0.58568 11.674 2.5576 20.927 9.1718 25.996 18.583 3.7865 7.0304 6.3729 18.31 6.3856 27.847v2.0505h-68.871l0.16872 2.377c0.80039 11.276 6.6768 20.518 15.804 24.856 7.3529 3.4944 16.16 3.7022 23.554 0.55587 4.1933-1.7844 8.7762-5.549 11.926-9.7968 1.553-2.0942 3.6588-5.5851 3.6588-6.0654 0-0.15652 0.11439-0.28457 0.2542-0.28457 0.32863 0 11.932 6.3238 12.415 6.766 0.3078 0.28193 0.144 0.70859-1.0257 2.6717-3.572 5.9947-9.0644 12.014-13.896 15.229-5.0412 3.3544-10.723 5.642-16.666 6.7099-2.3115 0.41539-10.895 0.7195-13.229 0.46868zm29.888-57.047c-1.844-8.6264-7.2834-15.951-14.543-19.583-3.5317-1.7671-8.4853-2.7487-12.548-2.4865-6.5301 0.42158-12.143 2.974-16.756 7.6196-3.8286 3.8556-6.5522 8.9482-7.7284 14.45l-0.18382 0.85989h51.942zm66.155 56.831c-3.3899-0.53286-6.1426-1.3933-9.2604-2.8947-6.4058-3.0846-10.986-7.6984-14.263-14.366-1.2256-2.4942-2.1515-4.8024-1.9813-4.9388 0.5181-0.41519 13.068-5.4269 13.198-5.2704 0.094 0.11352 0.3938 0.74218 0.6662 1.397 2.2123 5.319 6.5366 9.8956 10.979 11.62 7.7296 2.9998 16.018 0.20448 19.174-6.4666 2.5912-5.4774 1.6931-11.391-2.2899-15.078-2.0509-1.8987-4.1134-3.0713-10.145-5.7675-13.224-5.9116-17.412-8.365-21.128-12.379-2.1186-2.2883-3.6678-5.3312-4.2809-8.4082-0.6123-3.0738-0.4172-9.5883 0.3775-12.6 2.0557-7.7917 7.678-13.619 15.514-16.081 3.3906-1.0651 5.7036-1.3264 10.489-1.1849 4.932 0.14585 7.3409 0.70396 11.017 2.5524 4.7886 2.408 8.9377 6.7176 11.66 12.112l0.5565 1.1025-12.532 6.5942-1.1061-1.8861c-3.6723-6.2621-10.587-8.6722-16.687-5.8165-3.7262 1.7443-5.8641 6.0801-5.1205 10.385 0.3696 2.1396 1.1896 3.5982 2.8394 5.0504 1.7702 1.5582 3.8524 2.6604 10.1 5.3466 6.5604 2.8207 12.657 5.7994 15.425 7.5364 6.6222 4.1553 10.362 8.7196 11.884 14.506 0.7316 2.7803 0.8067 9.1868 0.1476 12.587-1.4974 7.724-5.4253 13.718-11.612 17.718-5.2811 3.4153-11.39 5.0556-18.587 4.991-1.6046-0.0144-3.8699-0.1759-5.034-0.3589zm226.06 2e-3c-9.2024-1.3215-16.904-5.0199-23.279-11.179-5.9894-5.7865-10.041-13.251-11.98-22.072-2.7276-12.409-1.4508-25.918 3.4216-36.206 1.9397-4.0953 4.3487-7.457 7.8977-11.021 5.8659-5.8912 12.36-9.377 20.918-11.228 3.6779-0.79528 12.146-1.0218 15.904-0.42545 8.9003 1.4123 17.068 6.0404 22.685 12.855l0.9662 1.1721v-12.266h15.346v88.106h-15.346v-11.951l-2.6849 2.8121c-3.4335 3.5962-6.4295 5.8446-10.412 7.8136-3.5569 1.7587-5.4647 2.4411-8.9735 3.2098-3.1827 0.69726-10.847 0.89786-14.464 0.37856zm13.73-13.801c8.8994-1.5847 16.367-7.6483 20.332-16.508 2.489-5.5628 3.4155-10.691 3.1787-17.595-0.1585-4.6212-0.6098-7.361-1.8087-10.98-3.2127-9.6991-10.555-16.576-20.549-19.246-2.2606-0.60394-3.0664-0.68349-6.924-0.68349-3.8472 0-4.6664 0.0804-6.8987 0.67707-7.2669 1.9424-12.741 5.8429-16.622 11.844-5.639 8.7192-6.9343 22.268-3.2005 33.475 4.7466 14.248 17.466 21.692 32.492 19.016zm186.05 13.881c-17.091-1.5721-32.929-8.8384-44.6-20.463-5.1613-5.1405-8.7854-9.9209-12.239-16.144-10.498-18.916-11.949-44.111-3.7302-64.742 11.434-28.7 38.985-46.1 71.417-45.104 5.557 0.17065 8.8657 0.56884 13.658 1.6437 8.0036 1.795 16.784 5.7708 23.842 10.796l1.9139 1.3625v9.8832 9.8832l-2.1139-1.9885c-2.5394-2.3889-7.1984-5.95-10.424-7.9679-6.4252-4.0189-14.55-6.9565-22.784-8.238-3.5371-0.55047-11.06-0.62524-14.684-0.14597-26.118 3.4534-45.472 23.115-49.382 50.168-0.6336 4.384-0.6357 13.166-0 17.33 1.0276 6.7745 2.6209 12.041 5.3236 17.595 7.9881 16.416 24.232 27.988 43.401 30.917 9.8292 1.5021 19.703 0.1917 29.898-3.9678 6.8077-2.7776 13.577-7.131 18.908-12.16l1.8622-1.7566v9.8878 9.8878l-1.3844 0.9147c-10.826 7.1538-22.42 11.277-34.986 12.441-3.3944 0.31458-10.29 0.29821-13.891-0.033zm109.54-0.0777c-9.4847-1.3669-17.244-5.1773-23.697-11.637-6.9744-6.9815-10.965-15.489-12.421-26.479-0.4957-3.7428-0.5681-12.104-0.1352-15.61 2.48-20.087 14.632-33.983 33.21-37.975 3.7092-0.79701 12.146-1.0271 15.888-0.43334 7.7316 1.2268 14.798 4.7671 20.116 10.079 1.0305 1.0291 2.2509 2.3448 2.712 2.9236l0.8383 1.0525v-12.291h15.346v88.106h-15.346v-12.012l-1.388 1.5742c-5.7218 6.4889-12.607 10.592-20.705 12.337-3.1631 0.68175-10.87 0.87723-14.42 0.36572zm13.645-13.787c5.991-1.0759 10.682-3.6908 15.095-8.4152 4.1845-4.4794 7.0228-10.644 8.1767-17.758 0.4558-2.8102 0.5107-9.2861 0.1035-12.214-1.2263-8.8166-5.4021-16.315-11.704-21.018-6.8867-5.1388-16.068-6.9976-24.271-4.9138-9.8223 2.4952-16.855 9.2576-20.064 19.293-1.3875 4.339-1.7367 6.8654-1.727 12.495 0.013 7.4521 0.9982 12.041 3.8073 17.731 5.7026 11.552 17.332 17.18 30.584 14.8zm293.54 13.898c-16.798-2.3357-29.322-12.56-34.56-28.214-3.4257-10.237-3.6693-24.21-0.6022-34.534 4.7602-16.024 17.338-27.016 33.69-29.444 3.9699-0.58947 10.712-0.53693 14.476 0.11282 7.8128 1.3484 13.811 4.5402 19.738 10.503l3.2412 3.2607v-12.165h15.081v88.106h-15.081v-5.9531c0-3.2742-0.089-5.9469-0.1984-5.9392-0.1092 8e-3 -0.7938 0.74053-1.5214 1.6287-4.7455 5.7925-12.605 10.456-20.436 12.125-2.9451 0.62787-10.886 0.92304-13.827 0.514zm12.556-13.791c12.216-2.0857 21.107-11.799 23.578-25.758 0.5649-3.1912 0.6419-10.151 0.1449-13.097-1.2254-7.2631-3.8621-12.93-8.113-17.436-6.4617-6.8497-16.128-10.136-25.394-8.6329-10.835 1.7574-18.943 8.8311-22.45 19.587-3.7453 11.486-1.7881 26.296 4.6033 34.83 1.7969 2.3994 5.3543 5.6922 7.5592 6.9968 5.7682 3.413 13.116 4.6981 20.072 3.5104zm90.764 13.879c-11.192-1.4506-19.856-7.5-24.745-17.277-0.871-1.7419-2.1944-5.0573-2.0545-5.147 0.069-0.0444 12.093-5.0687 12.817-5.3558 0.1768-0.0701 0.7984 0.91629 1.4779 2.3449 3.6405 7.655 9.5976 11.901 16.738 11.929 4.2498 0.0171 7.643-1.2652 10.34-3.9073 2.8487-2.7912 4.2736-6.7063 4.0183-11.041-0.1801-3.0592-0.9293-4.8566-2.9047-6.9683-2.1422-2.2901-4.3977-3.6362-11.235-6.7058-11.961-5.3695-16.727-8.1162-20.228-11.658-2.6135-2.6437-4.2833-5.8453-4.9023-9.3995-0.5521-3.1698-0.3516-8.8947 0.42-11.99 2.326-9.332 9.7294-15.78 19.81-17.254 3.1667-0.46303 9.9726-0.20607 12.356 0.46651 7.1292 2.0116 12.839 6.754 16.23 13.481l0.8248 1.6359-2.7068 1.4391c-9.664 5.1379-9.9309 5.2625-10.104 4.7185-0.5493-1.7306-3.2469-4.9586-5.374-6.4307-4.4679-3.0921-11.301-2.5534-14.779 1.1651-1.6583 1.7729-2.2838 3.3059-2.4277 5.9507-0.3369 6.19 1.5588 7.9487 14.632 13.574 16.892 7.2688 23.254 12.52 25.589 21.122 0.7921 2.9178 0.805 9.9427 0.025 13.53-2.5556 11.75-11.391 19.706-23.928 21.547-2.5355 0.37239-7.8404 0.49625-9.888 0.23085zm223.57-0.12619c-11.255-1.2716-22.063-6.7815-29.264-14.919-4.9679-5.6143-8.777-13.285-10.274-20.69-2.2155-10.958-0.9583-22.005 3.5901-31.548 6.112-12.824 17.255-21.417 31.831-24.547 3.1359-0.67334 3.7169-0.71345 10.334-0.71345 6.6172 0 7.1982 0.0401 10.334 0.71345 5.8069 1.2468 10.918 3.2605 15.463 6.0921 13.347 8.3154 21.034 22.747 21.034 39.486 0 22.51-14.088 40.462-35.475 45.206-1.662 0.36863-4.178 0.7959-5.5911 0.94949-3.0052 0.32662-8.9623 0.31215-11.983-0.0291zm12.648-14.011c12.376-2.4471 21.292-11.427 23.863-24.034 0.955-4.6831 0.9534-11.597-0-16.203-1.3229-6.3653-3.8307-11.249-8.0123-15.603-4.6718-4.8648-10.347-7.7247-17.514-8.8259-11.972-1.8395-23.998 3.3139-30.352 13.007-3.641 5.5543-5.3689 11.876-5.3655 19.63 0 4.1247 0.4595 7.5962 1.4504 11.001 4.469 15.354 19.664 24.246 35.934 21.029zm291.89 14.011c-11.069-1.2506-21.517-6.5022-28.865-14.508-8.5764-9.3448-12.847-22.952-11.471-36.551 2.1126-20.884 15.841-36.288 36.22-40.641 3.1248-0.66752 3.7404-0.71009 10.334-0.71473 6.6433-5e-3 7.1872 0.0328 10.358 0.7147 4.6328 0.99613 7.7149 2.0611 11.734 4.0545 15.501 7.6877 24.748 23.189 24.736 41.467-0.015 24.725-16.759 43.566-41.064 46.208-3.0052 0.32662-8.9623 0.31215-11.983-0.0291zm11.416-13.737c2.4586-0.36888 6.0499-1.4798 8.5082-2.6317 11.032-5.1696 17.3-15.89 17.324-29.625 0.017-9.7012-2.7305-17.46-8.2676-23.351-2.9143-3.1004-5.037-4.6868-8.6076-6.433-13.132-6.4219-29.454-3.0511-38.086 7.8654-2.366 2.9921-3.906 5.864-5.1349 9.576-2.3407 7.07-2.5394 15.697-0.5279 22.926 1.6391 5.8898 5.2053 11.483 9.5884 15.038 7.0094 5.6853 15.914 8.0296 25.204 6.6357zm-1886.7-32.653v-44.053h15.346v9.3393l1.2886-1.6931c3.7167-4.8834 9.1858-8.4652 14.518-9.5079 2.7275-0.53337 8.4259-0.20369 11.298 0.65366 2.6033 0.77699 6.1544 2.1906 6.3669 2.5344 0.0977 0.15808-6.3748 13.013-6.9041 13.712-0.0372 0.0491-1.0593-0.40038-2.2714-0.99891-3.1547-1.5578-5.7423-2.0389-8.8669-1.6486-8.2558 1.0313-12.67 6.1192-14.5 16.713-0.79089 4.5785-0.9283 9.637-0.92894 34.197l-6.4e-4 24.805h-15.346zm169.07-33.47v-77.523h15.346v76.773l2.0505-2.185c2.7126-2.8904 5.6349-5.035 9.2239-6.7691 4.4831-2.1661 7.1524-2.7697 12.935-2.9248 6.7839-0.18195 11.182 0.68214 16.14 3.1708 8.6227 4.3287 13.322 11.117 14.858 21.461 0.38206 2.574 0.45114 6.8908 0.54779 34.232l0.11059 31.287h-15.384l-3e-3 -27.715c-2e-3 -16.821-0.10995-28.937-0.27551-30.824-0.54982-6.267-2.0151-9.9399-5.2459-13.149-2.2851-2.2699-4.22-3.4046-7.3175-4.2913-3.0363-0.86919-8.5889-0.86827-11.632 2e-3 -8.3408 2.3848-13.282 8.6906-15.376 19.622-0.44218 2.3081-0.48851 4.7141-0.56679 29.435l-0.0852 26.921h-15.325zm301.36 40.481v-37.042h-9.525v-14.011l4.6964-0.0723 4.6963-0.0722 0.068-15.941 0.068-15.941h15.342v32.015h15.346v14.023h-15.346v74.083h-15.346zm60.325-7.0115v-44.053h15.081v4.4979c0 2.4738 0.089 4.4885 0.1984 4.4771 0.1091-0.0115 0.9128-0.9294 1.7859-2.0399 3.4046-4.33 8.5119-7.65 13.345-8.6745 2.2757-0.48243 7.3391-0.47018 9.674 0.0234 2.4004 0.50745 4.7564 1.2733 6.9913 2.2726l1.7923 0.80142-3.5918 6.8616c-1.9756 3.7739-3.6864 6.8616-3.8018 6.8616-0.1155 0-0.6816-0.29776-1.2581-0.66168-4.2311-2.671-10.764-2.8069-15.442-0.3213-4.7643 2.5315-7.4241 7.2646-8.7622 15.592-0.7424 4.6202-0.9207 11.373-0.9258 35.066l-0.01 23.349h-15.081zm490.8 0v-44.053h15.346v9.7772l2.1744-2.2649c2.9323-3.0543 5.0323-4.5966 8.8058-6.4674 4.6921-2.3261 7.2802-2.9306 13.229-3.0902 3.6307-0.0974 5.3369-0.028 7.1796 0.29211 9.6195 1.6708 17.026 6.838 20.946 14.612 1.0551 2.0928 1.8236 4.3936 2.5095 7.5139 0.5408 2.4598 0.5546 3.2105 0.645 35.123l0.092 32.61h-15.101l-0.01-27.318c-0-15.025-0.1201-28.786-0.2596-30.58-0.5225-6.7189-1.966-10.488-5.2993-13.836-3.0963-3.1097-6.5711-4.5719-11.653-4.9038-10.743-0.70162-18.855 5.4803-21.798 16.612-1.4128 5.344-1.4656 6.5834-1.4656 34.375v25.651h-15.346zm455.81-19.381-0.067-63.434-34.528-0.1362v-14.813h84.667v14.817h-34.396v127h-15.609zm172.04-14.089v-77.523h15.346v49.609c0 27.285 0.093 49.609 0.2066 49.609s7.3466-7.2562 16.073-16.125l15.867-16.125 20.107-0.0294-37.709 37.711 22.228 25.082c12.226 13.795 22.228 25.134 22.228 25.197 0 0.0633-4.4946 0.11184-9.988 0.10777l-9.988-7e-3 -17.198-19.588c-9.4589-10.773-17.348-19.784-17.532-20.024-0.297-0.38774-0.5565-0.21619-2.3151 1.5307l-1.9806 1.9674v36.129h-15.346z"/></svg>
