<svg xmlns="http://www.w3.org/2000/svg" version="1.1" xmlns:xlink="http://www.w3.org/1999/xlink" xmlns:svgjs="http://svgjs.dev/svgjs" width="100" height="100"><svg width="100" height="100" version="1.1" viewBox="0 0 26.458 26.458" xmlns="http://www.w3.org/2000/svg"><rect x="-2.7756e-17" width="26.458" height="26.458" fill="#fd9843" stroke-width=".25041"></rect><path transform="matrix(6.1886 0 0 6.4492 -23.719 -49.137)" d="m5.1077 8.2359h0.0127q0.073025 0.00635 0.11748 0.066675t0.03175 0.13335q-0.06985 0.41275-0.1778 0.71755-0.00953 0.0254-0.00953 0.053975v1.7208q0 0.07302-0.053975 0.12382-0.053975 0.05397-0.127 0.05397h-0.022225q-0.073025 0-0.127-0.05397-0.0508-0.0508-0.0508-0.12382v-1.1017q0-0.00635-0.00635-0.00635-0.00317 0-0.00635 0.00318-0.00635 0.00953-0.01905 0.03175-0.0127 0.022225-0.01905 0.03175-0.0254 0.04445-0.0762 0.0381-0.047625-0.00953-0.060325-0.060325l-0.028575-0.127q-0.0381-0.17145 0.0508-0.3302 0.2413-0.42862 0.35878-1.0128 0.015875-0.0762 0.0762-0.12065 0.060325-0.047625 0.13652-0.0381zm0.13335 0.66358q0-0.073025 0.053975-0.12382 0.053975-0.053975 0.127-0.053975h0.0127q0.073025 0 0.127 0.053975 0.053975 0.0508 0.053975 0.12382v1.6923q0 0.07302-0.053975 0.127-0.053975 0.05397-0.127 0.05397h-0.0127q-0.073025 0-0.127-0.05397-0.053975-0.05398-0.053975-0.127zm1.1081 0.37782q-0.041275 0.09525-0.0508 0.11748-0.0127 0.0254 0.0127 0.0254h0.9144q0.06985 0 0.11748 0.0508 0.0508 0.047625 0.0508 0.11748t-0.0508 0.12065q-0.047625 0.047625-0.11748 0.047625h-0.36512q-0.028575 0-0.028575 0.0254v0.1778q0 0.0254 0.028575 0.0254h0.43498q0.06985 0 0.12065 0.0508t0.0508 0.12382q0 0.07303-0.0508 0.12382-0.047625 0.04763-0.12065 0.04763h-0.37465q-0.028575 0-0.015875 0.0254 0.10795 0.22225 0.43498 0.35242 0.066675 0.0254 0.09525 0.09207 0.03175 0.0635 0.00635 0.13018l-0.00953 0.0254q-0.028575 0.07302-0.098425 0.10478-0.06985 0.03175-0.1397 0.0032-0.34608-0.14605-0.55562-0.4572-0.00317-0.0095-0.015875-0.0095-0.0127 0-0.01905 0.0064-0.28575 0.33972-0.82232 0.47942-0.0762 0.01905-0.14605-0.01905-0.06985-0.03492-0.098425-0.10795l-0.00953-0.0254q-0.0254-0.0635 0.00635-0.12382 0.034925-0.0635 0.10478-0.07937 0.5334-0.12382 0.6858-0.37148 0.00635-0.0064 0-0.01588-0.00317-0.0095-0.0127-0.0095h-0.41275q-0.073025 0-0.12382-0.04763-0.047625-0.0508-0.047625-0.12382v-0.04762q0-0.05398 0.034925-0.0889 0.0381-0.0381 0.0889-0.0381 0.00317 0 0.00317-0.00318 0.00318-0.00317 0-0.00635l-0.11748-0.06985q-0.060325-0.034925-0.073025-0.10478t0.03175-0.12382q0.14605-0.1905 0.25082-0.40322 0.00635-0.00635 0-0.015875-0.00635-0.00953-0.015875-0.00953h-0.03175q-0.073025 0-0.12382-0.0508-0.047625-0.0508-0.047625-0.12065t0.047625-0.12065q0.0508-0.0508 0.12382-0.0508h0.83185q0.022225 0 0.028575-0.028575l0.028575-0.22225q0.00317-0.00953-0.00635-0.01905-0.00635-0.00953-0.01905-0.00953h-0.7874q-0.073025 0-0.12382-0.0508t-0.0508-0.12065 0.0508-0.12065q0.0508-0.053975 0.12382-0.053975h1.0858q0.073025 0 0.12065 0.05715 0.0508 0.053975 0.04445 0.12382l-0.041275 0.41592q0 0.028575 0.0254 0.028575h0.085725q0.073025 0 0.12065 0.0508 0.0508 0.0508 0.0508 0.12065t-0.0508 0.12065q-0.047625 0.0508-0.12065 0.0508h-0.90805q-0.0254 0-0.0381 0.028575zm0.03175 0.47942h-0.26352q-0.0254 0-0.041275 0.01905-0.079375 0.11112-0.14605 0.1905-0.0127 0.01905 0.00953 0.01905h0.44132q0.028575 0 0.028575-0.0254v-0.1778q0-0.0254-0.028575-0.0254z" fill="#fff" stroke-width=".265" style="inline-size:4.51088;white-space:pre" aria-label="候"></path></svg><style>@media (prefers-color-scheme: light) { :root { filter: none; } }
@media (prefers-color-scheme: dark) { :root { filter: none; } }
</style></svg>